<?xml version="1.0" encoding="utf-8"?>
<!-- Generator: Adobe Illustrator 19.1.0, SVG Export Plug-In . SVG Version: 6.00 Build 0)  -->
<svg version="1.1" id="Layer_1" xmlns="http://www.w3.org/2000/svg" xmlns:xlink="http://www.w3.org/1999/xlink" x="0px" y="0px"
	 viewBox="0 0 267.2 267.7" style="enable-background:new 0 0 267.2 267.7;" xml:space="preserve">
<style type="text/css">
	.st0{fill:#D1C4F2;}
</style>
<g>
	<path class="st0" d="M201.4,198.9c-22,19.3-45.9,29.1-71.6,29.1c-25.1,0-46.2-8.7-63.6-26.5c-18.6-18.5-27.6-41.1-27.6-67.6
		c0-26.5,9.1-49.1,27.6-67.6c17.5-17.8,38.6-26.5,63.6-26.5c25.3,0,48.9,9.5,70.6,28.3L233,44.7C202.1,14.8,167.7,0,129.5,0
		C94.2,0,63.6,12.7,38.6,38.2C12.7,64.7,0,96.4,0,133.8c0,37.5,12.7,69.1,38.2,94.9c25.5,25.8,56,38.9,91.3,38.9
		c38.6,0,73.2-15.4,104.3-45.8L201.4,198.9z"/>
	<path class="st0" d="M240.7,53.8L130,133.1l111.4,79.7c7.2-8.9,25.9-41.5,25.9-77.9C267.2,93.8,248.2,63.3,240.7,53.8z"/>
</g>
</svg>
