<?xml version="1.0" encoding="utf-8"?>
<!-- Generator: Adobe Illustrator 19.1.0, SVG Export Plug-In . SVG Version: 6.00 Build 0)  -->
<svg version="1.1" id="Layer_1" xmlns="http://www.w3.org/2000/svg" xmlns:xlink="http://www.w3.org/1999/xlink" x="0px" y="0px"
	 viewBox="0 0 438 94.2" style="enable-background:new 0 0 438 94.2;" xml:space="preserve">
<style type="text/css">
	.st0{fill:#FFFFFF;}
</style>
<g>
	<polygon class="st0" points="57.5,9.7 40.8,0 28.8,7 0,23.6 0,42.9 28.8,26.3 	"/>
	<polygon class="st0" points="73.3,18.7 28.8,44.4 16.7,51.4 16.7,37.4 0,47.1 0,70.7 8.4,75.5 28.8,63.7 81.6,33.2 81.6,23.6 	"/>
	<polygon class="st0" points="28.8,68 28.7,68 12,77.6 28.8,87.3 40.8,94.2 81.6,70.7 81.6,51.4 40.8,74.9 	"/>
</g>
<g>
	<path class="st0" d="M116.4,76.3V19.5h42.9v11.1h-30.4v11.5h26.8v11.1h-26.8v11.9h30.8v11.1H116.4z"/>
	<path class="st0" d="M182.7,77.2c-6.1,0-12.9-2-18.7-6.6l5.3-8.1c4.7,3.4,9.7,5.2,13.7,5.2c3.6,0,5.2-1.3,5.2-3.2v-0.2
		c0-2.7-4.2-3.6-9-5c-6.1-1.8-13-4.6-13-13.1V46c0-8.8,7.1-13.8,15.9-13.8c5.5,0,11.5,1.9,16.2,5l-4.7,8.5
		c-4.3-2.5-8.6-4.1-11.8-4.1c-3,0-4.5,1.3-4.5,3v0.2c0,2.4,4.1,3.6,8.8,5.2c6.1,2,13.1,5,13.1,12.9v0.2
		C199.3,72.8,192.1,77.2,182.7,77.2z"/>
	<path class="st0" d="M220,77.1c-7.5,0-12.7-3-12.7-13.1V43.4h-5.2V32.8h5.2V21.7h12.3v11.1h10.2v10.6h-10.2V62c0,2.8,1.2,4.2,4,4.2
		c2.3,0,4.3-0.6,6.1-1.5v9.9C227.2,76.1,224.1,77.1,220,77.1z"/>
	<path class="st0" d="M237.2,28v-11h13v11H237.2z M237.5,76.3V32.8h12.3v43.5H237.5z"/>
	<path class="st0" d="M313.5,76.3V52.1c0-5.8-2.6-8.8-7.2-8.8c-4.6,0-7.5,3-7.5,8.8v24.3h-12.3V52.1c0-5.8-2.6-8.8-7.2-8.8
		c-4.6,0-7.5,3-7.5,8.8v24.3h-12.3V32.8h12.3V39c2.8-3.7,6.6-7,12.8-7c5.7,0,10,2.5,12.3,6.9c3.8-4.5,8.4-6.9,14.3-6.9
		c9.2,0,14.7,5.5,14.7,16v28.3H313.5z"/>
	<path class="st0" d="M360,76.3v-4.7c-3,3.3-7.1,5.5-13.2,5.5c-8.2,0-14.9-4.7-14.9-13.3v-0.2c0-9.5,7.2-13.9,17.5-13.9
		c4.4,0,7.5,0.7,10.6,1.8v-0.7c0-5.1-3.2-8-9.3-8c-4.7,0-8,0.9-12,2.4l-3.1-9.4c4.8-2.1,9.5-3.5,16.9-3.5c13.5,0,19.4,7,19.4,18.8
		v25.2H360z M360.3,58.8c-2.1-1-4.9-1.6-7.9-1.6c-5.3,0-8.5,2.1-8.5,6v0.2c0,3.3,2.8,5.3,6.7,5.3c5.8,0,9.7-3.2,9.7-7.6V58.8z"/>
	<path class="st0" d="M394.8,77.1c-7.5,0-12.7-3-12.7-13.1V43.4H377V32.8h5.2V21.7h12.3v11.1h10.2v10.6h-10.2V62
		c0,2.8,1.2,4.2,4,4.2c2.3,0,4.3-0.6,6.1-1.5v9.9C402,76.1,399,77.1,394.8,77.1z"/>
	<path class="st0" d="M437.4,44.9c-8.2,0-13.2,5-13.2,15.3v16.1h-12.3V32.8h12.3v8.8c2.5-6,6.6-9.9,13.9-9.6v12.9H437.4z"/>
</g>
</svg>
